<svg width="800" height="520" viewBox="0 0 800 520" fill="none" xmlns="http://www.w3.org/2000/svg">
  <defs>
    <linearGradient id="bg" x1="0" y1="0" x2="1" y2="1">
      <stop offset="0%" stop-color="#102a43"/>
      <stop offset="100%" stop-color="#1f6f78"/>
    </linearGradient>
  </defs>
  <rect width="800" height="520" rx="28" fill="url(#bg)"/>
  <rect x="44" y="42" width="712" height="436" rx="22" fill="rgba(255,255,255,0.06)" stroke="rgba(255,255,255,0.14)"/>
  <text x="60" y="86" style="font:700 14px 'Segoe UI', Arial, sans-serif; letter-spacing:3px; fill:#f4d8a6;">KRSH SOLUTIONS</text>
  <text x="60" y="150" style="font:700 46px 'Segoe UI', Arial, sans-serif; fill:#ffffff;">Branded Project Pack</text>
  <text x="60" y="192" style="font:500 22px 'Segoe UI', Arial, sans-serif; fill:#dbecef;">Vinayak Trading Platform</text>
  <text x="60" y="240" style="font:500 18px 'Segoe UI', Arial, sans-serif; fill:#c7dde2;">Presentation-ready architecture, implementation, and AWS story.</text>
  <rect x="60" y="310" width="180" height="44" rx="22" fill="#f4d8a6"/>
  <text x="150" y="338" text-anchor="middle" style="font:700 16px 'Segoe UI', Arial, sans-serif; fill:#17324a;">3-Tier Architecture</text>
  <rect x="260" y="310" width="150" height="44" rx="22" fill="#2c8b7e"/>
  <text x="335" y="338" text-anchor="middle" style="font:700 16px 'Segoe UI', Arial, sans-serif; fill:#ffffff;">AWS Ready</text>
  <rect x="500" y="120" width="210" height="220" rx="20" fill="#ffffff" fill-opacity="0.10"/>
  <rect x="528" y="152" width="152" height="24" rx="12" fill="#f4d8a6" fill-opacity="0.95"/>
  <rect x="528" y="196" width="152" height="24" rx="12" fill="#7cb3d9" fill-opacity="0.95"/>
  <rect x="528" y="240" width="152" height="24" rx="12" fill="#7abf9b" fill-opacity="0.95"/>
  <rect x="528" y="284" width="152" height="24" rx="12" fill="#d7a86e" fill-opacity="0.95"/>
  <text x="604" y="168" text-anchor="middle" style="font:700 13px 'Segoe UI', Arial, sans-serif; fill:#17324a;">Web Tier</text>
  <text x="604" y="212" text-anchor="middle" style="font:700 13px 'Segoe UI', Arial, sans-serif; fill:#17324a;">App Tier</text>
  <text x="604" y="256" text-anchor="middle" style="font:700 13px 'Segoe UI', Arial, sans-serif; fill:#17324a;">Data Tier</text>
  <text x="604" y="300" text-anchor="middle" style="font:700 13px 'Segoe UI', Arial, sans-serif; fill:#17324a;">Reports</text>
</svg>
